<svg width="62" height="62" viewBox="0 0 62 62" fill="none" xmlns="http://www.w3.org/2000/svg">
<g filter="url(#filter0_d_1_451)">
<circle cx="31" cy="27" r="17" fill="white"/>
</g>
<path fill-rule="evenodd" clip-rule="evenodd" d="M25.6978 20.6863C28.8944 20.4362 32.1057 20.4362 35.3023 20.6863L37.4489 20.8549C38.0303 20.9003 38.5798 21.1389 39.0099 21.5328C39.4399 21.9267 39.7257 22.4532 39.8218 23.0284C40.3172 25.9897 40.3172 29.0113 39.8218 31.9716C39.7258 32.5467 39.4401 33.0731 39.0103 33.467C38.5804 33.8609 38.0311 34.0996 37.4499 34.1451L35.3032 34.3128C32.1063 34.563 28.8947 34.563 25.6978 34.3128L23.5512 34.1451C22.9698 34.0998 22.4203 33.8612 21.9902 33.4672C21.5602 33.0733 21.2744 32.5468 21.1783 31.9716C20.6837 29.0111 20.6837 25.989 21.1783 23.0284C21.2743 22.4534 21.56 21.927 21.9898 21.5331C22.4197 21.1392 22.969 20.9005 23.5502 20.8549L25.6978 20.6863ZM28.5834 29.8671V25.1329C28.5835 25.0821 28.597 25.0323 28.6226 24.9884C28.6482 24.9445 28.685 24.9082 28.7293 24.8832C28.7735 24.8582 28.8235 24.8453 28.8743 24.8459C28.9251 24.8465 28.9749 24.8606 29.0185 24.8867L32.9639 27.2537C33.0064 27.2793 33.0415 27.3154 33.0659 27.3586C33.0903 27.4017 33.1031 27.4505 33.1031 27.5C33.1031 27.5496 33.0903 27.5983 33.0659 27.6415C33.0415 27.6846 33.0064 27.7207 32.9639 27.7463L29.0185 30.1134C28.9749 30.1395 28.9251 30.1535 28.8743 30.1542C28.8235 30.1548 28.7735 30.1419 28.7293 30.1169C28.685 30.0918 28.6482 30.0555 28.6226 30.0117C28.597 29.9678 28.5835 29.9179 28.5834 29.8671Z" fill="#070707"/>
<defs>
<filter id="filter0_d_1_451" x="0" y="0" width="62" height="62" filterUnits="userSpaceOnUse" color-interpolation-filters="sRGB">
<feFlood flood-opacity="0" result="BackgroundImageFix"/>
<feColorMatrix in="SourceAlpha" type="matrix" values="0 0 0 0 0 0 0 0 0 0 0 0 0 0 0 0 0 0 127 0" result="hardAlpha"/>
<feOffset dy="4"/>
<feGaussianBlur stdDeviation="7"/>
<feColorMatrix type="matrix" values="0 0 0 0 0 0 0 0 0 0 0 0 0 0 0 0 0 0 0.15 0"/>
<feBlend mode="normal" in2="BackgroundImageFix" result="effect1_dropShadow_1_451"/>
<feBlend mode="normal" in="SourceGraphic" in2="effect1_dropShadow_1_451" result="shape"/>
</filter>
</defs>
</svg>
