<svg width="62" height="62" viewBox="0 0 62 62" fill="none" xmlns="http://www.w3.org/2000/svg">
<g filter="url(#filter0_d_1_444)">
<circle cx="31" cy="27" r="17" fill="white"/>
</g>
<path fill-rule="evenodd" clip-rule="evenodd" d="M39.6922 30.4118C39.6922 30.4118 41.3901 32.0878 41.8101 32.8634C41.8182 32.8746 41.8246 32.887 41.829 32.9001C42.0001 33.1866 42.0421 33.4112 41.9581 33.5771C41.8164 33.851 41.3365 33.9885 41.1738 34H38.1729C37.9639 34 37.5292 33.9454 37 33.5802C36.5958 33.2979 36.1936 32.833 35.8041 32.3785C35.2224 31.7037 34.7194 31.1181 34.2102 31.1181C34.1458 31.1179 34.082 31.1286 34.0212 31.1496C33.6358 31.2713 33.1465 31.8202 33.1465 33.2821C33.1465 33.7397 32.7853 34 32.5323 34H31.1578C30.6895 34 28.2514 33.8363 26.0895 31.5578C23.4403 28.7682 21.061 23.1723 21.0379 23.123C20.8898 22.7609 21.2006 22.5636 21.5366 22.5636H24.5669C24.9733 22.5636 25.1056 22.8092 25.198 23.0296C25.3051 23.2825 25.702 24.2942 26.353 25.4308C27.4072 27.28 28.0551 28.0325 28.5727 28.0325C28.67 28.0328 28.7656 28.0075 28.8499 27.9591C29.5261 27.5875 29.4001 25.1737 29.3686 24.6762C29.3686 24.5797 29.3676 23.5984 29.0211 23.124C28.7733 22.784 28.3512 22.6517 28.096 22.6035C28.1643 22.5048 28.3092 22.3537 28.495 22.2645C28.9581 22.0336 29.7949 22 30.6255 22H31.0864C31.9873 22.0126 32.2204 22.0703 32.548 22.1532C33.2074 22.3107 33.22 22.7378 33.1623 24.1924C33.1455 24.608 33.1276 25.0761 33.1276 25.6271C33.1276 25.7446 33.1224 25.8758 33.1224 26.0091C33.1024 26.7553 33.0762 27.5959 33.6033 27.9412C33.6716 27.9838 33.7506 28.0063 33.8311 28.0063C34.0138 28.0063 34.5609 28.0063 36.0445 25.4613C36.6955 24.3372 37.1995 23.0117 37.2342 22.912C37.2636 22.8564 37.3518 22.7 37.4589 22.637C37.535 22.5965 37.6204 22.5763 37.7067 22.5783H41.2714C41.6599 22.5783 41.9235 22.637 41.9749 22.784C42.061 23.0222 41.9581 23.7495 40.3306 25.9493C40.0566 26.3155 39.8161 26.6325 39.6051 26.9096C38.1298 28.8448 38.1298 28.9425 39.6922 30.4118Z" fill="black"/>
<defs>
<filter id="filter0_d_1_444" x="0" y="0" width="62" height="62" filterUnits="userSpaceOnUse" color-interpolation-filters="sRGB">
<feFlood flood-opacity="0" result="BackgroundImageFix"/>
<feColorMatrix in="SourceAlpha" type="matrix" values="0 0 0 0 0 0 0 0 0 0 0 0 0 0 0 0 0 0 127 0" result="hardAlpha"/>
<feOffset dy="4"/>
<feGaussianBlur stdDeviation="7"/>
<feColorMatrix type="matrix" values="0 0 0 0 0 0 0 0 0 0 0 0 0 0 0 0 0 0 0.15 0"/>
<feBlend mode="normal" in2="BackgroundImageFix" result="effect1_dropShadow_1_444"/>
<feBlend mode="normal" in="SourceGraphic" in2="effect1_dropShadow_1_444" result="shape"/>
</filter>
</defs>
</svg>
