<svg width="200" height="45" viewBox="0 0 200 45" fill="none" xmlns="http://www.w3.org/2000/svg">
<path d="M185.667 18.0417L187.583 19.875L189.5 18.0417V13H185.667V18.0417ZM185.667 26.2917L187.583 24.4583L189.5 26.2917V31.3333H185.667V26.2917ZM191.896 24L189.979 22.1667L191.896 20.3333H197.167V24H191.896ZM183.271 20.3333L185.188 22.1667L183.271 24H178V20.3333H183.271Z" stroke="white" stroke-width="2" stroke-linecap="round" stroke-linejoin="round"/>
<path d="M2.69043 10.958H8.48193L16.4399 21.9746L24.0015 10.958H29.6372V32H21.4668V21.2524L13.6221 32.269L5.80566 21.2524V32H2.69043V10.958ZM32.3843 17.9673H40.4272L43.8257 26.6616L47.2241 17.9673H51.0049L44.9727 32.2832C44.5856 33.1895 44.1702 33.9919 43.7266 34.6904C43.2829 35.389 42.7684 36.0026 42.1831 36.5312C41.6073 37.0693 40.9465 37.5366 40.2007 37.9331C39.4549 38.3296 38.5959 38.6836 37.6235 38.9951L36.6323 36.6729C37.3875 36.4085 38.0436 36.1064 38.6006 35.7666C39.1576 35.4362 39.6296 35.0869 40.0166 34.7188C40.4036 34.36 40.7152 33.9966 40.9512 33.6284C41.1966 33.2603 41.3854 32.911 41.5176 32.5806L41.7441 31.9858H38.3174L32.3843 17.9673ZM52.6899 21.4932C52.6899 20.4925 52.8174 19.5296 53.0723 18.6045C53.3366 17.6699 53.7189 16.8014 54.2192 15.999C54.7196 15.1966 55.3332 14.465 56.0601 13.8042C56.7869 13.1434 57.613 12.577 58.5381 12.105C59.4727 11.633 60.5016 11.2695 61.625 11.0146C62.7484 10.7503 63.9567 10.6182 65.25 10.6182C66.0807 10.6182 66.8737 10.6701 67.6289 10.7739C68.3936 10.8778 69.111 11.0241 69.7812 11.2129C70.4515 11.3923 71.0698 11.6047 71.6362 11.8501C72.2121 12.0861 72.7313 12.3363 73.1938 12.6006L71.9761 14.9795C71.4474 14.7246 70.8433 14.5122 70.1636 14.3423C69.4933 14.1629 68.7948 14.0732 68.0679 14.0732C67.0955 14.0732 66.194 14.2479 65.3633 14.5972C64.5326 14.9465 63.8151 15.4421 63.2109 16.084C62.6068 16.7259 62.13 17.5047 61.7808 18.4204C61.4409 19.3267 61.271 20.3462 61.271 21.479C61.271 22.6024 61.4409 23.6219 61.7808 24.5376C62.1206 25.4438 62.5879 26.2227 63.1826 26.874C63.7868 27.516 64.4995 28.0163 65.3208 28.375C66.1515 28.7243 67.0483 28.8989 68.0112 28.8989V21.7764H76.2666L74.7939 24.4526V30.1733L74.8081 30.2017C74.3455 30.4754 73.7744 30.7397 73.0947 30.9946C72.415 31.2495 71.6551 31.4808 70.8149 31.6885C69.9842 31.8867 69.0968 32.0472 68.1528 32.1699C67.2088 32.2926 66.2412 32.354 65.25 32.354C63.3148 32.354 61.5684 32.0708 60.0107 31.5044C58.4626 30.9285 57.1457 30.1497 56.0601 29.168C54.9744 28.1768 54.139 27.0251 53.5537 25.7129C52.9779 24.3913 52.6899 22.9847 52.6899 21.4932ZM77.8101 27.582C77.8101 26.9023 77.9611 26.2699 78.2632 25.6846C78.5653 25.0993 78.9995 24.5895 79.5659 24.1553C80.1323 23.721 80.8167 23.3812 81.6191 23.1357C82.4215 22.8809 83.3184 22.7534 84.3096 22.7534C85.3008 22.7534 86.2259 22.8714 87.085 23.1074C87.9535 23.334 88.6803 23.6266 89.2656 23.9854V23.8721C89.2656 23.2113 89.1901 22.6496 89.0391 22.187C88.8975 21.7244 88.6756 21.3468 88.3735 21.0542C88.0715 20.7616 87.6844 20.5492 87.2124 20.417C86.7498 20.2848 86.2023 20.2188 85.5698 20.2188C84.994 20.2188 84.3993 20.2707 83.7856 20.3745C83.172 20.4689 82.6056 20.6105 82.0864 20.7993L81.0527 18.8877C82.0817 18.4629 83.1437 18.1608 84.2388 17.9814C85.3433 17.7926 86.4808 17.6982 87.6514 17.6982C89.1523 17.6982 90.4787 17.8446 91.6304 18.1372C92.7915 18.4204 93.7638 18.8499 94.5474 19.4258C95.3403 19.9922 95.9398 20.7096 96.3457 21.5781C96.7516 22.4372 96.9546 23.4473 96.9546 24.6084V32H89.7754L89.2939 30.6406C89.0107 30.8577 88.6756 31.0654 88.2886 31.2637C87.9015 31.4619 87.4767 31.6366 87.0142 31.7876C86.5516 31.9386 86.0607 32.0566 85.5415 32.1416C85.0223 32.2266 84.4795 32.269 83.9131 32.269C82.988 32.269 82.1478 32.151 81.3926 31.915C80.6468 31.6696 80.0096 31.3392 79.481 30.9238C78.9523 30.5085 78.5417 30.0176 78.249 29.4512C77.9564 28.8753 77.8101 28.2523 77.8101 27.582ZM85.7397 27.2847C85.7397 27.7944 85.9049 28.2098 86.2354 28.5308C86.5658 28.8423 87.0094 28.998 87.5664 28.998C87.8685 28.998 88.1659 28.9508 88.4585 28.8564C88.7511 28.7526 89.0202 28.6016 89.2656 28.4033V26.0103C88.7936 25.7271 88.2744 25.5854 87.708 25.5854C87.0661 25.5854 86.5752 25.7459 86.2354 26.0669C85.9049 26.3784 85.7397 26.7843 85.7397 27.2847ZM100.792 17.9673H107.575L108.254 20.0063C109.255 19.2417 110.27 18.6659 111.299 18.2788C112.337 17.8918 113.428 17.6982 114.57 17.6982C115.429 17.6982 116.208 17.887 116.906 18.2646C117.605 18.6423 118.152 19.2417 118.549 20.063C118.983 19.7515 119.45 19.4541 119.951 19.1709C120.451 18.8877 120.975 18.6375 121.522 18.4204C122.079 18.1938 122.655 18.0192 123.25 17.8965C123.845 17.7643 124.463 17.6982 125.105 17.6982C125.756 17.6982 126.365 17.8068 126.932 18.0239C127.498 18.241 127.989 18.5762 128.404 19.0293C128.82 19.4824 129.145 20.0677 129.381 20.7852C129.617 21.4932 129.735 22.3428 129.735 23.334V32H122.046V22.8525C122.046 22.3617 121.933 22.0029 121.707 21.7764C121.489 21.5498 121.173 21.4365 120.758 21.4365C120.541 21.4365 120.295 21.4884 120.021 21.5923C119.748 21.6867 119.469 21.8283 119.186 22.0171V32H111.497V22.8525C111.497 22.3617 111.389 22.0029 111.171 21.7764C110.954 21.5498 110.638 21.4365 110.223 21.4365C109.949 21.4365 109.647 21.4932 109.316 21.6064C108.986 21.7197 108.708 21.8991 108.481 22.1445V32H100.792V17.9673ZM132.638 24.9058C132.638 24.0939 132.766 23.3529 133.021 22.6826C133.275 22.0124 133.625 21.4129 134.068 20.8843C134.521 20.3462 135.055 19.8789 135.668 19.4824C136.282 19.0859 136.948 18.7555 137.665 18.4912C138.382 18.2269 139.133 18.0286 139.917 17.8965C140.7 17.7643 141.493 17.6982 142.295 17.6982C143.353 17.6982 144.311 17.8068 145.17 18.0239C146.038 18.2316 146.808 18.5195 147.478 18.8877C148.158 19.2559 148.743 19.6854 149.234 20.1763C149.734 20.6672 150.145 21.1911 150.466 21.748C150.796 22.2956 151.037 22.862 151.188 23.4473C151.348 24.0326 151.429 24.6037 151.429 25.1606L140.724 26.4492C140.931 27.4971 141.347 28.3089 141.97 28.8848C142.593 29.4606 143.466 29.7485 144.589 29.7485C145.203 29.7485 145.774 29.673 146.303 29.522C146.841 29.3709 147.261 29.1868 147.563 28.9697L148.696 30.9521C148.347 31.1315 147.964 31.3014 147.549 31.4619C147.143 31.6224 146.69 31.764 146.189 31.8867C145.699 32 145.151 32.0897 144.547 32.1558C143.952 32.2313 143.296 32.269 142.579 32.269C140.861 32.269 139.378 32.0708 138.132 31.6743C136.886 31.2684 135.853 30.7303 135.031 30.0601C134.219 29.3804 133.615 28.5968 133.219 27.7095C132.832 26.8221 132.638 25.8875 132.638 24.9058ZM144.561 23.7163C144.561 22.4891 144.405 21.597 144.094 21.04C143.792 20.4831 143.339 20.2046 142.734 20.2046C142.423 20.2046 142.135 20.2801 141.871 20.4312C141.606 20.5822 141.38 20.8182 141.191 21.1392C141.002 21.4601 140.851 21.8755 140.738 22.3853C140.625 22.8856 140.563 23.4945 140.554 24.2119L144.561 23.7163ZM154.643 28.375C155.03 28.5827 155.403 28.7715 155.762 28.9414C156.12 29.1113 156.479 29.2576 156.838 29.3804C157.197 29.4937 157.555 29.5833 157.914 29.6494C158.282 29.7155 158.665 29.7485 159.061 29.7485C159.684 29.7485 160.132 29.673 160.406 29.522C160.68 29.3709 160.817 29.1727 160.817 28.9272C160.817 28.7762 160.77 28.6488 160.675 28.5449C160.59 28.4411 160.468 28.3514 160.307 28.2759C160.147 28.1909 159.958 28.1154 159.741 28.0493C159.524 27.9738 159.283 27.8983 159.019 27.8228L158.211 27.582C157.418 27.346 156.734 27.0723 156.158 26.7607C155.582 26.4398 155.11 26.0811 154.742 25.6846C154.374 25.2881 154.1 24.8633 153.921 24.4102C153.742 23.9476 153.652 23.4567 153.652 22.9375C153.652 22.2673 153.803 21.6206 154.105 20.9976C154.407 20.3651 154.874 19.8034 155.507 19.3125C156.139 18.8216 156.946 18.4299 157.928 18.1372C158.919 17.8446 160.095 17.6982 161.454 17.6982C161.964 17.6982 162.493 17.7313 163.04 17.7974C163.597 17.854 164.135 17.9295 164.654 18.0239C165.174 18.1183 165.66 18.2269 166.113 18.3496C166.566 18.4629 166.948 18.5809 167.26 18.7036L166.014 20.9834C165.806 20.8701 165.561 20.771 165.277 20.686C165.004 20.5916 164.72 20.5114 164.428 20.4453C164.135 20.3698 163.852 20.3132 163.578 20.2754C163.314 20.2376 163.087 20.2188 162.898 20.2188C162.351 20.2188 161.959 20.2943 161.723 20.4453C161.487 20.5964 161.369 20.7804 161.369 20.9976C161.369 21.0825 161.393 21.1722 161.44 21.2666C161.487 21.361 161.582 21.4601 161.723 21.564C161.865 21.6678 162.063 21.7764 162.318 21.8896C162.573 22.0029 162.908 22.1209 163.323 22.2437L164.116 22.4844C164.994 22.7487 165.721 23.0461 166.297 23.3765C166.882 23.7069 167.349 24.0656 167.699 24.4526C168.057 24.8302 168.308 25.2314 168.449 25.6562C168.6 26.0811 168.676 26.5153 168.676 26.959C168.676 27.6387 168.511 28.2995 168.18 28.9414C167.85 29.5833 167.321 30.1497 166.594 30.6406C165.877 31.1315 164.947 31.528 163.805 31.8301C162.662 32.1227 161.279 32.269 159.656 32.269C158.957 32.269 158.315 32.2407 157.73 32.1841C157.145 32.1274 156.592 32.0425 156.073 31.9292C155.554 31.8159 155.054 31.679 154.572 31.5186C154.1 31.3486 153.633 31.1598 153.17 30.9521L154.643 28.375Z" fill="white"/>
</svg>
